<svg width="22" height="22" viewBox="0 0 22 22" fill="none" xmlns="http://www.w3.org/2000/svg">
<path d="M17.2857 0H4.71429C2.11514 0 0 2.11462 0 4.71429V17.2857C0 19.8854 2.11514 22 4.71429 22H17.2857C19.8849 22 22 19.8854 22 17.2857V4.71429C22 2.11462 19.8849 0 17.2857 0ZM16.2381 12.0476V14.1429V14.1539H16.237C16.2308 15.5928 15.059 16.7619 13.619 16.7619H13.3571C12.8401 16.7619 12.3446 16.5419 11.9973 16.1585C11.6506 15.7756 11.4814 15.2586 11.5327 14.7416C11.626 13.8181 12.4599 13.0952 13.432 13.0952H14.1429C14.7206 13.0952 15.1905 12.6254 15.1905 12.0476V6.9169L8.90476 8.09548V13.619V15.7143C8.90476 17.1584 7.72986 18.3333 6.28571 18.3333H6.02381C5.50681 18.3333 5.01129 18.1133 4.664 17.7299C4.31724 17.347 4.14805 16.83 4.19938 16.313C4.29262 15.3895 5.12652 14.6667 6.09871 14.6667H6.80952C7.38729 14.6667 7.85714 14.1968 7.85714 13.619V5.94681C7.85714 5.44238 8.217 5.00919 8.71252 4.917L15.3078 3.68081C15.5378 3.63733 15.7745 3.6981 15.9542 3.8479C16.1349 3.99771 16.2381 4.21824 16.2381 4.45238V12.0476Z" fill="#1A1A1A"/>
</svg>
