<svg width="20" height="18" viewBox="0 0 20 18" fill="none" xmlns="http://www.w3.org/2000/svg">
<path d="M9.23554 1.59599C7.11598 -0.523576 3.68692 -0.533876 1.57652 1.57652C-0.533876 3.68692 -0.523576 7.11598 1.59599 9.23554L9.4421 17.0817C9.76755 17.4071 10.2952 17.4071 10.6207 17.0817L18.426 9.28091C20.5315 7.16365 20.5248 3.74421 18.4049 1.62427C16.2815 -0.499094 12.8509 -0.509396 10.7367 1.60478L9.99123 2.35168L9.23554 1.59599ZM17.2442 8.10565L10.0314 15.3138L2.77454 8.05699C1.3043 6.58674 1.29717 4.21299 2.75508 2.75508C4.21299 1.29717 6.58674 1.3043 8.05699 2.77454L9.40596 4.12352C9.73697 4.45453 10.2756 4.44804 10.5985 4.10915L11.9153 2.78333C13.3769 1.32165 15.7523 1.32878 17.2263 2.80282C18.697 4.27344 18.7016 6.64011 17.2442 8.10565Z" fill="#ECECEC"/>
</svg>
