<svg width="22" height="22" viewBox="0 0 22 22" fill="none" xmlns="http://www.w3.org/2000/svg">
<path d="M11 0C4.93468 0 0 4.93468 0 11C0 17.0653 4.93468 22 11 22C17.0653 22 22 17.0658 22 11C22 4.9342 17.0653 0 11 0ZM15.656 15.9442C15.5178 16.1517 15.2902 16.2636 15.0584 16.2636C14.9216 16.2636 14.7835 16.2249 14.6611 16.1431C13.4788 15.3548 11.4738 14.8289 9.80051 14.8294C8.02495 14.8303 6.69399 15.2663 6.6806 15.2706C6.30579 15.3978 5.89895 15.1932 5.7737 14.8174C5.64844 14.4417 5.85162 14.0353 6.22739 13.9105C6.29049 13.8895 7.79499 13.3966 9.80051 13.3956C11.4738 13.3947 13.801 13.846 15.4571 14.9498C15.787 15.1698 15.8759 15.6148 15.656 15.9442ZM17.0864 13.0089C16.931 13.2584 16.6628 13.3956 16.3888 13.3956C16.2406 13.3956 16.0905 13.3559 15.9557 13.2713C13.812 11.9356 11.6091 11.653 9.71111 11.6698C7.56839 11.6889 5.85497 12.0977 5.82581 12.1063C5.39219 12.2296 4.93611 11.9762 4.81229 11.5407C4.68847 11.1042 4.94233 10.6505 5.37833 10.5272C5.51076 10.4894 7.22083 10.0687 9.56195 10.0491C11.6966 10.0314 14.3566 10.3407 16.8244 11.8782C17.2083 12.1173 17.3264 12.624 17.0864 13.0089ZM18.5134 9.5763C18.3351 9.87939 18.0157 10.0482 17.6878 10.0482C17.5233 10.0482 17.3569 10.0056 17.2044 9.91668C14.706 8.44995 11.6683 8.13873 9.56004 8.13586C9.55 8.13586 9.53996 8.13586 9.52992 8.13586C6.98036 8.13586 5.01691 8.58429 4.99731 8.58907C4.48194 8.70716 3.96897 8.38876 3.84945 7.87435C3.72993 7.36042 4.04881 6.84697 4.56274 6.72698C4.65118 6.70642 6.74897 6.22356 9.52992 6.22356C9.54092 6.22356 9.55191 6.22356 9.56291 6.22356C11.9079 6.22691 15.3051 6.58355 18.173 8.26733C18.6281 8.53505 18.7806 9.12117 18.5134 9.5763Z" fill="#1A1A1A"/>
</svg>
