<svg width="22" height="22" viewBox="0 0 22 22" fill="none" xmlns="http://www.w3.org/2000/svg">
<path d="M11 0C4.925 0 0 4.925 0 11C0 17.075 4.925 22 11 22C17.075 22 22 17.075 22 11C22 4.925 17.075 0 11 0ZM11 4C14.86 4 18 7.14 18 11C18 14.86 14.86 18 11 18C7.14 18 4 14.86 4 11C4 7.14 7.14 4 11 4ZM11 5C7.6915 5 5 7.6915 5 11C5 14.3085 7.6915 17 11 17C14.3085 17 17 14.3085 17 11C17 7.6915 14.3085 5 11 5ZM9.50977 7.75098C9.59702 7.7526 9.68349 7.77624 9.76074 7.82324L14.2607 10.5732C14.4087 10.6637 14.5 10.8255 14.5 11C14.5 11.1745 14.4092 11.3358 14.2607 11.4268L9.76074 14.1768C9.68074 14.2253 9.5905 14.25 9.5 14.25C9.416 14.25 9.33186 14.228 9.25586 14.1855C9.09786 14.097 9 13.9305 9 13.75V8.25C9 8.0695 9.09786 7.90295 9.25586 7.81445C9.33511 7.77045 9.42252 7.74935 9.50977 7.75098Z" fill="#1A1A1A"/>
</svg>
